# xmcd
#
# Track frame offsets:
#	150
#	12287
#	22175
#	35612
#	47127
#	58345
#	69075
#	79787
#	89435
#	103080
#	117105
#	127527
#	142742
#	158930
#	169382
#	180752
#	192155
#	210535
#	223987
#	240280
#	251292
#	262307
#
# Disc length: 3681 seconds
# Revision: 0
# Processed by: cddbd v1.5.2PL0 Copyright (c) Steve Scherf et al.
# Submitted via: dBpowerAMP V12.0
#
DISCID=2d0e5f16
DTITLE=Various Artist - Greatest Hits of the Millennium: 60's volume 1
DYEAR=1999
DGENRE=Pop
TTITLE0=Chuck Berry - You Can Never Tell
TTITLE1=Johnny and His Cellar Rockers - Close Your Eyes
TTITLE2=Gene Pitney - Twenty Four Hours from Tulsa
TTITLE3=Terry Stafford - Suspicion
TTITLE4=Dave Berry - This Strange Effect
TTITLE5=Sam the Sham and the Pharaohs - Wooly Bully
TTITLE6=Scorpions - Hello Josephine
TTITLE7=Jewel Akens - The Birds and the Bees
TTITLE8=Nini Rosso - Il Silenzio
TTITLE9=Petula Clark - Downtown
TTITLE10=The Byrds - Mr. Tambourine Man
TTITLE11=Fortunes - You've Got Your Troubles
TTITLE12=Barry McGuire - Eve of Destruction
TTITLE13=ZZ and the Maskers - Goldfinger
TTITLE14=France Gall - Poupée de Cire, Poupée de Son
TTITLE15=Johnny Lion - Sophietje
TTITLE16=Trio Hellenique - La Danse de Zorba
TTITLE17=The Searchers - Goodbye My Love
TTITLE18=Righteous Brothers - Unchained Melody
TTITLE19=Roger Miller - King of the Road
TTITLE20=The Ivy League - Tossing and Turning
TTITLE21=The McCoys - Hang on Sloopy
EXTD=
EXTT0=
EXTT1=
EXTT2=
EXTT3=
EXTT4=
EXTT5=
EXTT6=
EXTT7=
EXTT8=
EXTT9=
EXTT10=
EXTT11=
EXTT12=
EXTT13=
EXTT14=
EXTT15=
EXTT16=
EXTT17=
EXTT18=
EXTT19=
EXTT20=
EXTT21=
PLAYORDER=
